HIERARCHY
ROOT Hips
{
	OFFSET 0.000000 89.005402 0.000000
	CHANNELS 6 Xposition Yposition Zposition Xrotation Yrotation Zrotation
	JOINT Spine
	{
		OFFSET 0.116900 10.681000 0.373400
		CHANNELS 3 Xrotation Yrotation Zrotation
		JOINT Spine1
		{
			OFFSET 0.000000 13.840401 0.053500
			CHANNELS 3 Xrotation Yrotation Zrotation
			JOINT Spine2
			{
				OFFSET 0.000000 14.712700 -0.366200
				CHANNELS 3 Xrotation Yrotation Zrotation
				JOINT Neck
				{
					OFFSET 0.000000 35.415497 -3.314200
					CHANNELS 3 Xrotation Yrotation Zrotation
					JOINT Head
					{
						OFFSET 0.000000 16.899200 1.218300
						CHANNELS 3 Xrotation Yrotation Zrotation
						JOINT HeadTop_End
						{
							OFFSET 0.000000 22.206207 2.192500
							CHANNELS 3 Xrotation Yrotation Zrotation
							End Site
							{
								OFFSET 0.000000 22.314178 0.000000
							}
						}
					}
				}
				JOINT LeftShoulder
				{
					OFFSET 12.896400 26.716293 -4.548400
					CHANNELS 3 Xrotation Yrotation Zrotation
					JOINT LeftArm
					{
						OFFSET 19.027000 -4.857010 -1.718400
						CHANNELS 3 Xrotation Yrotation Zrotation
						JOINT LeftForeArm
						{
							OFFSET 24.179897 0.000000 0.000000
							CHANNELS 3 Xrotation Yrotation Zrotation
							JOINT LeftHand
							{
								OFFSET 27.156403 0.000000 0.000000
								CHANNELS 3 Xrotation Yrotation Zrotation
								JOINT LeftHandIndex1
								{
									OFFSET 16.441200 0.000000 0.000000
									CHANNELS 3 Xrotation Yrotation Zrotation
									JOINT LeftHandIndex2
									{
										OFFSET 4.821899 0.000000 0.000000
										CHANNELS 3 Xrotation Yrotation Zrotation
										JOINT LeftHandIndex3
										{
											OFFSET 6.386497 0.000000 0.000000
											CHANNELS 3 Xrotation Yrotation Zrotation
											JOINT LeftHandIndex4
											{
												OFFSET 5.188988 0.000000 0.000000
												CHANNELS 3 Xrotation Yrotation Zrotation
												End Site
												{
													OFFSET -0.178703 5.185913 0.000177
												}
											}
										}
									}
								}
								JOINT LeftHandThumb1
								{
									OFFSET 6.534897 -5.032593 5.900300
									CHANNELS 3 Xrotation Yrotation Zrotation
									JOINT LeftHandThumb2
									{
										OFFSET 3.818176 -2.204422 2.204423
										CHANNELS 3 Xrotation Yrotation Zrotation
										JOINT LeftHandThumb3
										{
											OFFSET 3.252098 -1.877594 1.877601
											CHANNELS 3 Xrotation Yrotation Zrotation
											JOINT LeftHandThumb4
											{
												OFFSET 5.251778 -3.032120 3.032117
												CHANNELS 3 Xrotation Yrotation Zrotation
												End Site
												{
													OFFSET 0.000023 6.780014 0.000000
												}
											}
										}
									}
								}
							}
						}
					}
				}
				JOINT RightShoulder
				{
					OFFSET -12.896300 26.716293 -4.548400
					CHANNELS 3 Xrotation Yrotation Zrotation
					JOINT RightArm
					{
						OFFSET -19.027000 -4.857010 -1.718400
						CHANNELS 3 Xrotation Yrotation Zrotation
						JOINT RightForeArm
						{
							OFFSET -24.179897 0.000000 0.000000
							CHANNELS 3 Xrotation Yrotation Zrotation
							JOINT RightHand
							{
								OFFSET -27.156403 0.000000 0.000000
								CHANNELS 3 Xrotation Yrotation Zrotation
								JOINT RightHandThumb1
								{
									OFFSET -6.591202 -4.852203 5.988100
									CHANNELS 3 Xrotation Yrotation Zrotation
									JOINT RightHandThumb2
									{
										OFFSET -3.818176 -2.204422 2.204423
										CHANNELS 3 Xrotation Yrotation Zrotation
										JOINT RightHandThumb3
										{
											OFFSET -3.252098 -1.877594 1.877601
											CHANNELS 3 Xrotation Yrotation Zrotation
											JOINT RightHandThumb4
											{
												OFFSET -5.251778 -3.032120 3.032117
												CHANNELS 3 Xrotation Yrotation Zrotation
												End Site
												{
													OFFSET -0.000023 6.780014 0.000000
												}
											}
										}
									}
								}
								JOINT RightHandIndex1
								{
									OFFSET -16.029404 0.000000 0.000000
									CHANNELS 3 Xrotation Yrotation Zrotation
									JOINT RightHandIndex2
									{
										OFFSET -5.213303 0.000000 0.000000
										CHANNELS 3 Xrotation Yrotation Zrotation
										JOINT RightHandIndex3
										{
											OFFSET -6.386528 0.000000 0.000000
											CHANNELS 3 Xrotation Yrotation Zrotation
											JOINT RightHandIndex4
											{
												OFFSET -5.189026 0.000000 0.000000
												CHANNELS 3 Xrotation Yrotation Zrotation
												End Site
												{
													OFFSET 0.236702 5.183624 0.001972
												}
											}
										}
									}
								}
							}
						}
					}
				}
			}
		}
	}
	JOINT LeftUpLeg
	{
		OFFSET 14.073000 -7.904099 -1.463000
		CHANNELS 3 Xrotation Yrotation Zrotation
		JOINT LeftLeg
		{
			OFFSET -0.109806 -34.073280 4.093200
			CHANNELS 3 Xrotation Yrotation Zrotation
			JOINT LeftFoot
			{
				OFFSET 0.109806 -29.899420 -6.319000
				CHANNELS 3 Xrotation Yrotation Zrotation
				JOINT LeftToeBase
				{
					OFFSET 1.551100 -14.988700 20.535801
					CHANNELS 3 Xrotation Yrotation Zrotation
					JOINT LeftToe_End
					{
						OFFSET 0.221200 0.570800 13.248301
						CHANNELS 3 Xrotation Yrotation Zrotation
						End Site
						{
							OFFSET 0.000000 13.262435 0.000000
						}
					}
				}
			}
		}
	}
	JOINT RightUpLeg
	{
		OFFSET -13.839300 -7.904099 -1.463000
		CHANNELS 3 Xrotation Yrotation Zrotation
		JOINT RightLeg
		{
			OFFSET 0.109694 -34.073219 4.093300
			CHANNELS 3 Xrotation Yrotation Zrotation
			JOINT RightFoot
			{
				OFFSET -0.109694 -29.899384 -6.319200
				CHANNELS 3 Xrotation Yrotation Zrotation
				JOINT RightToeBase
				{
					OFFSET -1.551100 -14.988700 20.535801
					CHANNELS 3 Xrotation Yrotation Zrotation
					JOINT RightToe_End
					{
						OFFSET -0.221200 0.570900 13.248299
						CHANNELS 3 Xrotation Yrotation Zrotation
						End Site
						{
							OFFSET 0.000000 13.262440 0.000000
						}
					}
				}
			}
		}
	}
}
MOTION
Frames: 5
Frame Time: 0.033333
-0.064092 78.451126 0.740441 5.448756 2.945927 -3.564902 4.913525 1.356273 1.936625 9.857121 2.800251 1.722122 9.857124 2.800251 1.722122 -7.496570 -3.144981 -0.434788 -14.101447 -7.360290 -5.253900 -0.000001 0.000000 0.000000 1.084063 -1.226536 -9.108712 21.951221 16.129913 -69.744605 5.201851 -103.989869 -6.123385 11.822883 -20.243332 2.841599 -4.473754 -5.484357 -78.092046 -6.119744 -4.169228 -86.100825 0.000001 0.000004 -0.000001 -0.000003 0.000002 -0.000003 -3.691970 -7.086341 -6.633096 5.379925 13.664026 2.731231 0.000003 -0.000000 0.000005 0.000001 0.000001 0.000000 0.776476 6.054092 9.529801 5.506729 -10.523602 55.529301 -70.897111 86.710419 75.614149 -0.540996 5.793813 2.436048 1.190064 2.334195 7.237146 4.256737 -11.099384 -2.557176 -0.000002 0.000013 -0.000000 -0.000002 -0.000001 -0.000000 3.425478 2.971552 72.847027 -5.581826 2.947805 92.129628 0.000007 -0.000001 0.000013 -0.000000 0.000000 0.000000 -41.132745 6.423041 -1.668110 98.295363 14.538059 4.075293 -11.823644 -1.129556 6.301977 -0.898540 -2.887890 -6.627551 -0.000001 0.000000 0.000001 -17.578948 -5.974551 5.607770 50.166373 -0.912526 -1.810888 -30.976554 0.881471 -1.592478 -10.243107 12.978179 -1.678548 -0.000000 0.000001 0.000000 
-0.458990 74.575470 17.466534 -1.457328 -3.838693 -1.615200 5.766703 2.116017 0.248293 11.585715 3.483108 -0.729204 11.585703 3.483107 -0.729202 -6.174823 -4.511077 0.564221 -11.215600 -11.084892 -2.805567 0.000000 -0.000000 -0.000000 1.099884 0.115062 -10.037404 27.789408 23.990449 -68.451773 70.991286 -87.838166 53.227466 11.750444 -22.658371 6.731058 -4.545566 -5.793870 -71.924112 -5.377107 -4.078468 -79.929558 -0.000000 0.000001 0.000002 0.000001 -0.000001 0.000001 -4.039699 -6.459097 -4.984774 5.248450 13.364488 2.714514 0.000003 0.000007 0.000003 -0.000000 0.000003 -0.000000 0.782365 6.590785 8.479518 -5.293286 8.590570 41.451578 -7.835151 80.133548 11.930204 -3.194958 3.915239 0.101003 0.288001 2.279425 5.530767 4.236234 -11.057420 -2.557134 -0.000005 0.000012 0.000002 -0.000000 -0.000001 0.000001 2.317348 2.657719 67.253922 -4.906683 2.933218 85.363404 0.000009 0.000000 0.000014 0.000001 -0.000000 -0.000000 -61.486804 11.907279 -3.146011 87.628513 0.221970 4.001243 -7.821915 -1.322692 6.261500 -2.108052 -1.824171 -7.129179 -0.000001 0.000000 0.000000 -10.654229 -10.771856 2.332348 66.242556 -1.387191 -1.555772 -37.838640 0.434049 -1.178446 -27.060906 9.999342 0.343744 0.000000 -0.000000 0.000000 
-0.625728 69.527740 30.558033 -6.675255 -9.249989 -1.960280 6.480367 2.655016 -1.006859 13.033955 3.762280 -2.743134 13.033952 3.762279 -2.743135 -4.934945 -6.651734 3.248020 -6.712837 -15.434795 0.533575 0.000000 0.000000 0.000000 1.084572 0.758379 -9.666857 33.823964 30.221408 -68.790257 46.495874 -85.983366 24.533063 12.432396 -21.300189 9.199060 -4.526812 -6.419002 -62.826040 -4.311663 -3.801334 -70.846260 0.000003 0.000004 -0.000003 0.000003 -0.000000 0.000003 -4.539047 -5.540611 -2.519286 5.064402 12.945497 2.689844 0.000004 0.000001 0.000005 0.000001 0.000002 -0.000001 0.817514 6.371054 7.264250 -12.371561 20.407996 34.096957 0.072570 69.572621 0.927062 -6.760008 4.354106 0.028454 -1.035284 2.257140 2.995543 4.217483 -11.018978 -2.557077 0.000003 0.000008 0.000002 0.000001 -0.000001 0.000000 0.739412 2.700073 58.968882 -3.926337 2.767480 75.396034 0.000011 -0.000003 0.000014 -0.000000 -0.000002 0.000002 -66.606051 11.522520 -6.658980 77.349809 -6.986342 5.715657 0.260637 -2.832102 10.461804 -7.329134 -4.449038 -5.664063 -0.000000 -0.000001 0.000000 -0.497131 -15.019579 -3.166164 76.988444 2.848037 -2.776622 -45.355052 -3.089788 1.887479 -41.571516 3.262771 -0.291957 -0.000002 -0.000002 -0.000001 
-0.733872 64.555283 40.385994 -11.677055 -15.917300 -3.348452 7.194427 3.224875 -2.061623 14.504038 3.974690 -4.844010 14.504035 3.974686 -4.844009 -4.196541 -9.164469 6.115424 -2.253169 -20.393586 3.669640 -0.000000 0.000003 -0.000000 1.076598 1.522575 -9.447081 39.439572 35.252106 -70.172264 59.441340 -86.594211 37.198358 13.262281 -18.789830 12.104803 -4.213116 -7.419629 -51.616897 -3.084450 -3.237267 -59.703571 -0.000002 0.000001 0.000002 -0.000005 0.000001 -0.000001 -5.132831 -4.420032 0.570379 4.854540 12.468128 2.660028 0.000003 0.000000 0.000005 -0.000002 -0.000001 0.000001 0.850094 5.755695 5.680822 -21.073546 29.103450 32.814015 -3.859678 61.956393 -0.524940 -10.529104 5.653262 0.325022 -2.647201 2.326043 -0.153452 4.213635 -11.011120 -2.557057 -0.000001 0.000009 0.000003 0.000001 -0.000000 0.000002 -0.910860 3.540811 48.741490 -2.784254 2.336072 63.154122 0.000009 -0.000005 0.000014 -0.000000 -0.000000 -0.000001 -70.119986 -0.259817 -12.841655 74.911596 -13.287629 4.652267 5.098276 -3.424450 11.181751 -11.290884 -4.799219 -5.362326 -0.000001 -0.000002 0.000000 4.620599 -18.678814 -14.469187 87.927901 13.380815 -3.715900 -46.652289 -3.427649 2.000846 -48.457832 -7.584832 -1.680489 -0.000001 -0.000001 0.000000 
-0.386004 59.293457 49.422867 -14.788198 -24.156972 -3.738057 7.371623 3.681740 -3.071529 14.912798 4.171047 -7.016994 14.912787 4.171054 -7.016991 -4.383120 -11.553700 7.763646 1.313390 -25.602127 5.801265 0.000000 -0.000001 0.000000 1.138882 2.831999 -9.906359 41.723447 37.836711 -69.514107 87.577983 -87.561966 67.846940 13.833933 -15.811441 13.585714 -3.450818 -8.674578 -39.901747 -1.950013 -2.411655 -48.140611 0.000000 0.000002 -0.000001 0.000001 -0.000001 -0.000000 -5.730581 -3.258265 3.863281 4.662685 12.032259 2.631121 0.000000 -0.000001 0.000006 0.000000 -0.000001 0.000001 0.839412 4.596348 4.514252 -31.707715 31.833746 35.997016 -9.767456 61.019257 8.127835 -8.929600 9.232287 -1.713203 -4.306857 2.519062 -3.474977 4.239653 -11.067769 -2.559760 0.000002 0.000009 0.000003 -0.000003 -0.000000 -0.000000 -2.038015 5.253291 38.070836 -1.721434 1.641140 50.429114 0.000009 -0.000004 0.000014 -0.000000 -0.000004 -0.000000 -70.741943 -5.168390 -8.613114 77.958297 -30.489080 5.282742 6.428318 1.613673 -6.169747 -9.980169 -1.654318 -6.237611 0.000000 -0.000002 -0.000000 1.492804 -16.314557 -35.778939 98.302439 29.153245 -2.789634 -38.576464 -1.283476 0.776440 -55.567284 -19.392200 7.059055 0.000000 0.000002 0.000000 
